<svg width="26" height="27" viewBox="0 0 26 27" fill="none" xmlns="http://www.w3.org/2000/svg">
<g id="element-3">
<path id="Vector" d="M23.8333 9.72984V4.8115C23.8333 3.284 23.14 2.6665 21.4175 2.6665H17.0408C15.3183 2.6665 14.625 3.284 14.625 4.8115V9.719C14.625 11.2573 15.3183 11.864 17.0408 11.864H21.4175C23.14 11.8748 23.8333 11.2573 23.8333 9.72984Z" stroke="black" stroke-opacity="0.7" stroke-width="1.5" stroke-linecap="round" stroke-linejoin="round"/>
<path id="Vector_2" d="M23.8333 21.9175V17.5408C23.8333 15.8183 23.14 15.125 21.4175 15.125H17.0408C15.3183 15.125 14.625 15.8183 14.625 17.5408V21.9175C14.625 23.64 15.3183 24.3333 17.0408 24.3333H21.4175C23.14 24.3333 23.8333 23.64 23.8333 21.9175Z" stroke="black" stroke-opacity="0.7" stroke-width="1.5" stroke-linecap="round" stroke-linejoin="round"/>
<path id="Vector_3" d="M11.3763 9.72984V4.8115C11.3763 3.284 10.683 2.6665 8.96047 2.6665H4.5838C2.8613 2.6665 2.16797 3.284 2.16797 4.8115V9.719C2.16797 11.2573 2.8613 11.864 4.5838 11.864H8.96047C10.683 11.8748 11.3763 11.2573 11.3763 9.72984Z" stroke="black" stroke-opacity="0.7" stroke-width="1.5" stroke-linecap="round" stroke-linejoin="round"/>
<path id="Vector_4" d="M11.3763 21.9175V17.5408C11.3763 15.8183 10.683 15.125 8.96047 15.125H4.5838C2.8613 15.125 2.16797 15.8183 2.16797 17.5408V21.9175C2.16797 23.64 2.8613 24.3333 4.5838 24.3333H8.96047C10.683 24.3333 11.3763 23.64 11.3763 21.9175Z" stroke="black" stroke-opacity="0.7" stroke-width="1.5" stroke-linecap="round" stroke-linejoin="round"/>
</g>
</svg>
