<svg width="26" height="26" viewBox="0 0 26 26" fill="none" xmlns="http://www.w3.org/2000/svg">
<g id="menu">
<path id="menu_2" d="M2.70898 6.49998C2.70898 6.20098 2.95165 5.95831 3.25065 5.95831H22.7507C23.0497 5.95831 23.2923 6.20098 23.2923 6.49998C23.2923 6.79898 23.0497 7.04165 22.7507 7.04165H3.25065C2.95165 7.04165 2.70898 6.79898 2.70898 6.49998ZM22.7507 12.4583H3.25065C2.95165 12.4583 2.70898 12.701 2.70898 13C2.70898 13.299 2.95165 13.5416 3.25065 13.5416H22.7507C23.0497 13.5416 23.2923 13.299 23.2923 13C23.2923 12.701 23.0497 12.4583 22.7507 12.4583ZM22.7507 18.9583H3.25065C2.95165 18.9583 2.70898 19.201 2.70898 19.5C2.70898 19.799 2.95165 20.0416 3.25065 20.0416H22.7507C23.0497 20.0416 23.2923 19.799 23.2923 19.5C23.2923 19.201 23.0497 18.9583 22.7507 18.9583Z" fill="white"/>
</g>
</svg>
