<svg width="26" height="27" viewBox="0 0 26 27" fill="none" xmlns="http://www.w3.org/2000/svg">
<g id="sun">
<path id="Vector" d="M12.9987 20.5418C16.8877 20.5418 20.0404 17.3892 20.0404 13.5002C20.0404 9.61116 16.8877 6.4585 12.9987 6.4585C9.10969 6.4585 5.95703 9.61116 5.95703 13.5002C5.95703 17.3892 9.10969 20.5418 12.9987 20.5418Z" fill="black" fill-opacity="0.7" stroke="black" stroke-opacity="0.7" stroke-width="1.5" stroke-linecap="round" stroke-linejoin="round"/>
<g id="Vector_2">
<path d="M20.5955 5.90567L20.7363 5.76484L20.5955 5.90567ZM5.2663 21.2348L5.40714 21.094L5.2663 21.2348ZM13.0013 2.75317V2.6665V2.75317ZM13.0013 24.3332V24.2465V24.3332ZM2.25464 13.4998H2.16797H2.25464ZM23.8346 13.4998H23.748H23.8346ZM5.40714 5.90567L5.2663 5.76484L5.40714 5.90567ZM20.7363 21.2348L20.5955 21.094L20.7363 21.2348Z" fill="black" fill-opacity="0.7"/>
<path d="M20.7363 21.2348L20.5955 21.094M20.5955 5.90567L20.7363 5.76484L20.5955 5.90567ZM5.2663 21.2348L5.40713 21.094L5.2663 21.2348ZM13.0013 2.75317V2.6665V2.75317ZM13.0013 24.3332V24.2465V24.3332ZM2.25464 13.4998H2.16797H2.25464ZM23.8346 13.4998H23.748H23.8346ZM5.40713 5.90567L5.2663 5.76484L5.40713 5.90567Z" stroke="black" stroke-opacity="0.7" stroke-width="2" stroke-linecap="round" stroke-linejoin="round"/>
</g>
</g>
</svg>
