<svg width="26" height="27" viewBox="0 0 26 27" fill="none" xmlns="http://www.w3.org/2000/svg">
<g id="sun">
<path id="Vector" d="M12.9987 20.5417C16.8877 20.5417 20.0404 17.389 20.0404 13.5C20.0404 9.61099 16.8877 6.45833 12.9987 6.45833C9.10969 6.45833 5.95703 9.61099 5.95703 13.5C5.95703 17.389 9.10969 20.5417 12.9987 20.5417Z" fill="white" fill-opacity="0.7" stroke="white" stroke-opacity="0.7" stroke-width="1.5" stroke-linecap="round" stroke-linejoin="round"/>
<g id="Vector_2">
<path d="M20.5955 5.90584L20.7363 5.76501L20.5955 5.90584ZM5.2663 21.235L5.40714 21.0942L5.2663 21.235ZM13.0013 2.75334V2.66667V2.75334ZM13.0013 24.3333V24.2467V24.3333ZM2.25464 13.5H2.16797H2.25464ZM23.8346 13.5H23.748H23.8346ZM5.40714 5.90584L5.2663 5.76501L5.40714 5.90584ZM20.7363 21.235L20.5955 21.0942L20.7363 21.235Z" fill="white" fill-opacity="0.7"/>
<path d="M20.7363 21.235L20.5955 21.0942M20.5955 5.90584L20.7363 5.76501L20.5955 5.90584ZM5.2663 21.235L5.40713 21.0942L5.2663 21.235ZM13.0013 2.75334V2.66667V2.75334ZM13.0013 24.3333V24.2467V24.3333ZM2.25464 13.5H2.16797H2.25464ZM23.8346 13.5H23.748H23.8346ZM5.40713 5.90584L5.2663 5.76501L5.40713 5.90584Z" stroke="white" stroke-opacity="0.7" stroke-width="2" stroke-linecap="round" stroke-linejoin="round"/>
</g>
</g>
</svg>
