<svg width="25" height="25" viewBox="0 0 25 25" fill="none" xmlns="http://www.w3.org/2000/svg">
<g id="32/Sunny">
<path id="outline" fill-rule="evenodd" clip-rule="evenodd" d="M11.7188 3.90625V1.5625H13.2812V3.90625H11.7188ZM16.1203 4.66704L17.2922 2.63729L18.6454 3.41854L17.4735 5.44829L16.1203 4.66704ZM12.5 17.9688C15.5203 17.9688 17.9688 15.5203 17.9688 12.5C17.9688 9.47969 15.5203 7.03125 12.5 7.03125C9.47969 7.03125 7.03125 9.47969 7.03125 12.5C7.03125 15.5203 9.47969 17.9688 12.5 17.9688ZM12.5 19.5312C16.3833 19.5312 19.5312 16.3833 19.5312 12.5C19.5312 8.61675 16.3833 5.46875 12.5 5.46875C8.61675 5.46875 5.46875 8.61675 5.46875 12.5C5.46875 16.3833 8.61675 19.5312 12.5 19.5312ZM21.0938 11.7188H23.4375V13.2812H21.0938V11.7188ZM21.5815 6.35467L19.5518 7.52654L20.333 8.87971L22.3628 7.70783L21.5815 6.35467ZM6.35467 3.41854L7.52654 5.44829L8.87971 4.66704L7.70783 2.63729L6.35467 3.41854ZM4.66699 8.87971L2.63724 7.70783L3.41849 6.35467L5.44824 7.52654L4.66699 8.87971ZM11.7188 21.0938V23.4375H13.2812V21.0938H11.7188ZM3.90625 11.7188H1.5625V13.2812H3.90625V11.7188ZM2.6372 17.2922L4.66695 16.1203L5.4482 17.4735L3.41845 18.6453L2.6372 17.2922ZM7.52659 19.5518L6.35472 21.5816L7.70788 22.3628L8.87975 20.3331L7.52659 19.5518ZM17.2922 22.3628L16.1203 20.3331L17.4735 19.5518L18.6453 21.5816L17.2922 22.3628ZM19.5518 17.4735L21.5815 18.6453L22.3628 17.2922L20.3331 16.1203L19.5518 17.4735Z" fill="url(#paint0_linear_707_5764)"/>
</g>
<defs>
<linearGradient id="paint0_linear_707_5764" x1="12.5" y1="1.5625" x2="12.5" y2="23.4375" gradientUnits="userSpaceOnUse">
<stop stop-color="#EFC977"/>
<stop offset="1" stop-color="#E07256"/>
</linearGradient>
</defs>
</svg>
